<svg width="285" height="505" viewBox="0 0 285 505" fill="none" xmlns="http://www.w3.org/2000/svg">
 <g filter="url(#filter0_d_0_1)">
 <path d="M287 479C163.288 479 63 378.04 63 253.5C63 128.96 163.288 28 287 28" stroke="white" stroke-width="8"/>
 </g>
 <circle cx="62.5" cy="252.5" r="62.5" fill="white" fill-opacity="0.5"/>
 <rect x="9" y="198" width="108" height="108" rx="54" fill="white"/>
 <path fill-rule="evenodd" clip-rule="evenodd" d="M49.5785 275.191L62.9521 257.444L76.4223 275.319L102.6 266.305L102.117 238.623L75.6404 230.528L63.0453 248.516L50.3603 230.4L23.8836 238.495L23.4004 266.177L49.5785 275.191ZM47.9707 269.61L59.8249 253.294L59.7601 253.208L60.0951 252.729L47.9707 236.041L28.2398 242.452V263.199L47.9707 269.61ZM65.8357 252.954L78.0301 236.17L97.761 242.581V263.327L78.0301 269.738L65.8357 252.954Z" fill="#525050"/>
 <circle cx="170.5" cy="62.5" r="62.5" fill="white" fill-opacity="0.5"/>
 <rect x="117" y="8" width="108" height="108" rx="54" fill="white"/>
 <path fill-rule="evenodd" clip-rule="evenodd" d="M142.03 24.2L190.158 72.6468L132.301 92.6L142.03 24.2ZM145.335 34.4254L180.584 70.5876L138.881 85.2228L145.335 34.4254Z" fill="#524F4F"/>
 <path fill-rule="evenodd" clip-rule="evenodd" d="M203.572 24.2L155.444 72.6468L213.301 92.6L203.572 24.2ZM200.265 34.4254L165.016 70.5876L206.719 85.2228L200.265 34.4254Z" fill="#524F4F"/>
 <circle cx="170.5" cy="442.5" r="62.5" fill="white" fill-opacity="0.5"/>
 <rect x="116" y="388" width="108" height="108" rx="54" fill="white"/>
 <rect x="170" y="409.6" width="46.8" height="46.8" transform="rotate(45 170 409.6)" fill="#524F4F"/>
 <path opacity="0.353997" fill-rule="evenodd" clip-rule="evenodd" d="M137.234 442L205.412 406L181.356 453.062L169.741 459.142L137.234 442Z" fill="#524F4F"/>
 <path opacity="0.353997" fill-rule="evenodd" clip-rule="evenodd" d="M134 406L202.809 442.011L169.753 459.147L158.619 452.998L134 406Z" fill="#524F4F"/>
 <path opacity="0.353997" fill-rule="evenodd" clip-rule="evenodd" d="M202.809 442.006L134 477.697L158.331 430.84L169.896 424.785L202.809 442.006Z" fill="#524F4F"/>
 <path opacity="0.353997" fill-rule="evenodd" clip-rule="evenodd" d="M137.229 441.991L205.407 477.697L181.127 430.642L169.91 424.778L137.229 441.991Z" fill="#524F4F"/>
 <circle cx="171" cy="61.908" r="53.908" fill="black"/>
 <path d="M150.511 74.6794C150.885 74.3058 151.399 74.0879 151.944 74.0879H201.348C202.251 74.0879 202.702 75.1775 202.064 75.8156L192.304 85.5751C191.931 85.9487 191.417 86.1666 190.872 86.1666H141.468C140.565 86.1666 140.114 85.077 140.752 84.4389L150.511 74.6794Z" fill="url(#paint0_linear_0_1)"/>
 <path d="M150.511 38.2409C150.901 37.8673 151.414 37.6494 151.944 37.6494H201.348C202.251 37.6494 202.702 38.739 202.064 39.3772L192.304 49.1367C191.931 49.5102 191.417 49.7281 190.872 49.7281H141.468C140.565 49.7281 140.114 48.6386 140.752 48.0004L150.511 38.2409Z" fill="url(#paint1_linear_0_1)"/>
 <path d="M192.304 56.3434C191.931 55.9699 191.417 55.752 190.872 55.752H141.468C140.565 55.752 140.114 56.8415 140.752 57.4797L150.511 67.2392C150.885 67.6128 151.399 67.8307 151.944 67.8307H201.348C202.251 67.8307 202.702 66.7411 202.064 66.1029L192.304 56.3434Z" fill="url(#paint2_linear_0_1)"/>
 <circle cx="61.9998" cy="250.908" r="53.908" fill="#E84142"/>
 <path fill-rule="evenodd" clip-rule="evenodd" d="M65.2278 213.003C63.3601 209.777 60.3888 209.777 58.5211 213.003L24.6057 272.726C22.738 275.994 24.2661 278.584 28.0015 278.584H45.0229C48.4611 278.371 51.5597 276.546 53.4274 273.66L73.9294 238.131C75.4151 235.075 75.4151 231.467 73.9294 228.411L67.817 217.672L65.2278 213.003ZM87.7675 252.309C85.8998 249.083 82.886 249.083 81.0184 252.309L69.1756 272.726C67.3503 275.952 68.8784 278.584 72.5714 278.584H96.0023C99.7376 278.584 101.266 275.952 99.398 272.726L87.7675 252.309Z" fill="white"/>
 <circle cx="170" cy="440.908" r="53.908" fill="#2A5ADA"/>
 <path fill-rule="evenodd" clip-rule="evenodd" d="M163.118 408.761L169.713 404.969L176.307 408.761L194.276 419.147L200.87 422.939V458.877L194.276 462.669L176.472 473.055L169.877 476.847L163.283 473.055L145.149 462.669L138.555 458.877V422.939L145.149 419.147L163.118 408.761ZM151.744 430.522V451.294L169.713 461.68L187.683 451.294V430.522L169.713 420.136L151.744 430.522Z" fill="white"/>
 <circle cx="286.908" cy="250.908" r="53.908" fill="#F8F9F9"/>
 <path d="M286.76 218.563L267.141 251.116L286.76 262.713V242.199V218.563Z" fill="#8C8C8C"/>
 <path d="M286.76 282.484V266.428L267.141 254.837L286.76 282.484Z" fill="#8C8C8C"/>
 <path d="M267.141 251.116L286.76 262.713V242.199L267.141 251.116Z" fill="#393939"/>
 <defs>
 <filter id="filter0_d_0_1" x="49" y="14" width="248" height="479" filterUnits="userSpaceOnUse" color-interpolation-filters="sRGB">
 <feFlood flood-opacity="0" result="BackgroundImageFix"/>
 <feColorMatrix in="SourceAlpha" type="matrix" values="0 0 0 0 0 0 0 0 0 0 0 0 0 0 0 0 0 0 127 0" result="hardAlpha"/>
 <feOffset/>
 <feGaussianBlur stdDeviation="5"/>
 <feComposite in2="hardAlpha" operator="out"/>
 <feColorMatrix type="matrix" values="0 0 0 0 1 0 0 0 0 1 0 0 0 0 1 0 0 0 1 0"/>
 <feBlend mode="normal" in2="BackgroundImageFix" result="effect1_dropShadow_0_1"/>
 <feBlend mode="normal" in="SourceGraphic" in2="effect1_dropShadow_0_1" result="shape"/>
 </filter>
 <linearGradient id="paint0_linear_0_1" x1="28.7905" y1="28.4839" x2="27.476" y2="94.6283" gradientUnits="userSpaceOnUse">
 <stop stop-color="#00FFA3"/>
 <stop offset="1" stop-color="#DC1FFF"/>
 </linearGradient>
 <linearGradient id="paint1_linear_0_1" x1="13.8399" y1="20.6785" x2="12.5254" y2="86.823" gradientUnits="userSpaceOnUse">
 <stop stop-color="#00FFA3"/>
 <stop offset="1" stop-color="#DC1FFF"/>
 </linearGradient>
 <linearGradient id="paint2_linear_0_1" x1="21.2676" y1="24.5564" x2="19.9531" y2="90.7009" gradientUnits="userSpaceOnUse">
 <stop stop-color="#00FFA3"/>
 <stop offset="1" stop-color="#DC1FFF"/>
 </linearGradient>
 </defs>
 </svg>
