<svg width="287" height="505" viewBox="0 0 287 505" fill="none" xmlns="http://www.w3.org/2000/svg">
<g filter="url(#filter0_d_319_9380)">
<path d="M287 479C163.288 479 63 378.04 63 253.5C63 128.96 163.288 28 287 28" stroke="white" stroke-width="8"/>
</g>
<circle cx="62.5" cy="252.5" r="62.5" fill="white" fill-opacity="0.5"/>
<rect x="9" y="198" width="108" height="108" rx="54" fill="white"/>
<path fill-rule="evenodd" clip-rule="evenodd" d="M49.5785 275.191L62.9521 257.444L76.4223 275.319L102.6 266.305L102.117 238.623L75.6404 230.528L63.0453 248.516L50.3603 230.4L23.8836 238.495L23.4004 266.177L49.5785 275.191ZM47.9707 269.61L59.825 253.294L59.7601 253.208L60.0951 252.729L47.9707 236.041L28.2397 242.452V263.199L47.9707 269.61ZM65.8357 252.954L78.0301 236.17L97.761 242.581V263.327L78.0301 269.738L65.8357 252.954Z" fill="#525050"/>
<circle cx="170.5" cy="62.5" r="62.5" fill="white" fill-opacity="0.5"/>
<rect x="117" y="8" width="108" height="108" rx="54" fill="white"/>
<path fill-rule="evenodd" clip-rule="evenodd" d="M142.03 24.2L190.158 72.6468L132.301 92.6L142.03 24.2ZM145.335 34.4254L180.584 70.5876L138.881 85.2228L145.335 34.4254Z" fill="#524F4F"/>
<path fill-rule="evenodd" clip-rule="evenodd" d="M203.572 24.2L155.444 72.6468L213.301 92.6L203.572 24.2ZM200.265 34.4254L165.016 70.5876L206.719 85.2228L200.265 34.4254Z" fill="#524F4F"/>
<circle cx="170.5" cy="442.5" r="62.5" fill="white" fill-opacity="0.5"/>
<rect x="116" y="388" width="108" height="108" rx="54" fill="white"/>
<rect x="170" y="409.6" width="46.8" height="46.8" transform="rotate(45 170 409.6)" fill="#524F4F"/>
<path opacity="0.353997" fill-rule="evenodd" clip-rule="evenodd" d="M137.234 442L205.412 406L181.356 453.062L169.741 459.142L137.234 442Z" fill="#524F4F"/>
<path opacity="0.353997" fill-rule="evenodd" clip-rule="evenodd" d="M134 406L202.809 442.011L169.753 459.147L158.619 452.998L134 406Z" fill="#524F4F"/>
<path opacity="0.353997" fill-rule="evenodd" clip-rule="evenodd" d="M202.809 442.006L134 477.697L158.331 430.84L169.896 424.785L202.809 442.006Z" fill="#524F4F"/>
<path opacity="0.353997" fill-rule="evenodd" clip-rule="evenodd" d="M137.229 441.991L205.407 477.697L181.127 430.642L169.91 424.778L137.229 441.991Z" fill="#524F4F"/>
<defs>
<filter id="filter0_d_319_9380" x="49" y="14" width="248" height="479" filterUnits="userSpaceOnUse" color-interpolation-filters="sRGB">
<feFlood flood-opacity="0" result="BackgroundImageFix"/>
<feColorMatrix in="SourceAlpha" type="matrix" values="0 0 0 0 0 0 0 0 0 0 0 0 0 0 0 0 0 0 127 0" result="hardAlpha"/>
<feOffset/>
<feGaussianBlur stdDeviation="5"/>
<feComposite in2="hardAlpha" operator="out"/>
<feColorMatrix type="matrix" values="0 0 0 0 1 0 0 0 0 1 0 0 0 0 1 0 0 0 1 0"/>
<feBlend mode="normal" in2="BackgroundImageFix" result="effect1_dropShadow_319_9380"/>
<feBlend mode="normal" in="SourceGraphic" in2="effect1_dropShadow_319_9380" result="shape"/>
</filter>
</defs>
</svg>
