<svg width="1388" height="800" viewBox="0 0 1388 800" fill="none" xmlns="http://www.w3.org/2000/svg">
<path opacity="0.4" d="M1190 607L1308.05 335L1322 335L1203.95 607H1190Z" fill="url(#paint0_linear_772_5302)"/>
<path opacity="0.4" d="M939 590L1057.05 318L1071 318L952.955 590H939Z" fill="url(#paint1_linear_772_5302)"/>
<path opacity="0.4" d="M614 132L688.646 -40L697.471 -40L622.824 132H614Z" fill="url(#paint2_linear_772_5302)"/>
<path opacity="0.1" d="M526 255L627.948 19L640 19L538.052 255H526Z" fill="url(#paint3_linear_772_5302)"/>
<path opacity="0.4" d="M452 84L553.948 -152L566 -152L464.052 84H452Z" fill="url(#paint4_linear_772_5302)"/>
<path opacity="0.1" d="M815 727L889.646 555L898.471 555L823.824 727H815Z" fill="url(#paint5_linear_772_5302)"/>
<path opacity="0.1" d="M0 348L74.6465 176L83.4706 176L8.82418 348H0Z" fill="url(#paint6_linear_772_5302)"/>
<path opacity="0.4" d="M856 554L930.646 382L939.471 382L864.824 554H856Z" fill="url(#paint7_linear_772_5302)"/>
<path opacity="0.4" d="M1304 240L1378.65 68L1387.47 68L1312.82 240H1304Z" fill="url(#paint8_linear_772_5302)"/>
<path opacity="0.1" d="M1257 274L1311.55 148L1318 148L1263.45 274H1257Z" fill="url(#paint9_linear_772_5302)"/>
<path opacity="0.1" d="M42 315L73.937 242L81 242L49.063 315H42Z" fill="url(#paint10_linear_772_5302)"/>
<path opacity="0.3" d="M1066 725L1097.94 652L1109 652L1077.06 725H1066Z" fill="url(#paint11_linear_772_5302)"/>
<path opacity="0.1" d="M832 990L1057.98 468L1084.69 468L858.713 990H832Z" fill="url(#paint12_linear_772_5302)"/>
<defs>
<linearGradient id="paint0_linear_772_5302" x1="1256" y1="335" x2="1256" y2="607" gradientUnits="userSpaceOnUse">
<stop stop-color="#FFD17F"/>
<stop offset="1" stop-color="#FFD17F" stop-opacity="0"/>
</linearGradient>
<linearGradient id="paint1_linear_772_5302" x1="1005" y1="318" x2="1005" y2="590" gradientUnits="userSpaceOnUse">
<stop stop-color="#677DF2"/>
<stop offset="1" stop-color="#677DF2" stop-opacity="0"/>
</linearGradient>
<linearGradient id="paint2_linear_772_5302" x1="655.735" y1="-40" x2="655.735" y2="132" gradientUnits="userSpaceOnUse">
<stop stop-color="#677DF2"/>
<stop offset="1" stop-color="#677DF2" stop-opacity="0"/>
</linearGradient>
<linearGradient id="paint3_linear_772_5302" x1="639.357" y1="19" x2="549.209" y2="218.327" gradientUnits="userSpaceOnUse">
<stop stop-color="#677DF2"/>
<stop offset="1" stop-color="#677DF2" stop-opacity="0"/>
</linearGradient>
<linearGradient id="paint4_linear_772_5302" x1="509" y1="-152" x2="509" y2="84" gradientUnits="userSpaceOnUse">
<stop stop-color="#677DF2"/>
<stop offset="1" stop-color="#677DF2" stop-opacity="0"/>
</linearGradient>
<linearGradient id="paint5_linear_772_5302" x1="898" y1="555" x2="832.5" y2="700.5" gradientUnits="userSpaceOnUse">
<stop stop-color="#677DF2"/>
<stop offset="1" stop-color="#677DF2" stop-opacity="0"/>
</linearGradient>
<linearGradient id="paint6_linear_772_5302" x1="83" y1="176" x2="17.5" y2="321.5" gradientUnits="userSpaceOnUse">
<stop stop-color="#677DF2"/>
<stop offset="1" stop-color="#677DF2" stop-opacity="0"/>
</linearGradient>
<linearGradient id="paint7_linear_772_5302" x1="897.735" y1="382" x2="897.735" y2="554" gradientUnits="userSpaceOnUse">
<stop stop-color="#FFD17F"/>
<stop offset="1" stop-color="#FFD17F" stop-opacity="0"/>
</linearGradient>
<linearGradient id="paint8_linear_772_5302" x1="1345.74" y1="68" x2="1345.74" y2="240" gradientUnits="userSpaceOnUse">
<stop stop-color="#677DF2"/>
<stop offset="1" stop-color="#677DF2" stop-opacity="0"/>
</linearGradient>
<linearGradient id="paint9_linear_772_5302" x1="1317.66" y1="148" x2="1269.6" y2="254.501" gradientUnits="userSpaceOnUse">
<stop stop-color="#677DF2"/>
<stop offset="1" stop-color="#677DF2" stop-opacity="0"/>
</linearGradient>
<linearGradient id="paint10_linear_772_5302" x1="80.7801" y1="242" x2="54.7613" y2="305.628" gradientUnits="userSpaceOnUse">
<stop stop-color="#677DF2"/>
<stop offset="1" stop-color="#677DF2" stop-opacity="0"/>
</linearGradient>
<linearGradient id="paint11_linear_772_5302" x1="1134.5" y1="598.5" x2="1087.5" y2="725" gradientUnits="userSpaceOnUse">
<stop stop-color="#677DF2"/>
<stop offset="1" stop-color="#677DF2" stop-opacity="0"/>
</linearGradient>
<linearGradient id="paint12_linear_772_5302" x1="1083.27" y1="468" x2="884.151" y2="909.202" gradientUnits="userSpaceOnUse">
<stop stop-color="#677DF2"/>
<stop offset="1" stop-color="#677DF2" stop-opacity="0"/>
</linearGradient>
</defs>
</svg>
