<svg width="983" height="489" viewBox="0 0 983 489" fill="none" xmlns="http://www.w3.org/2000/svg">
<rect opacity="0.312783" width="4.84701" height="241" rx="2.42351" transform="matrix(-0.809017 0.587785 0.587785 0.809017 299.922 39)" fill="#5D5FEF"/>
<rect width="8" height="241" rx="4" transform="matrix(-0.819152 0.573576 0.573576 0.819152 843.555 89)" fill="#F4F4F4"/>
<rect width="4.84701" height="241" rx="2.42351" transform="matrix(-0.809017 0.587785 0.587785 0.809017 517.922 291)" fill="#D8D8D8"/>
<rect opacity="0.143965" width="12" height="241" rx="6" transform="matrix(-0.809017 0.587785 0.587785 0.809017 441.711 259)" fill="#FFC55F"/>
<rect width="6" height="181" rx="3" transform="matrix(-0.819152 0.573576 0.573576 0.819152 36.9141 171)" fill="#F4F4F4"/>
<rect opacity="0.2" width="9" height="70" rx="4.5" transform="matrix(-0.819152 0.573576 0.573576 0.819152 342.375 350)" fill="#5D5FEF"/>
<rect width="19" height="384.003" rx="9.5" transform="matrix(-0.819152 0.573576 0.573576 0.819152 525.562 22)" fill="#F4F4F4"/>
<rect width="23" height="300" rx="11.25" transform="matrix(-0.819152 0.573576 0.573576 0.819152 18.8398 0)" fill="#D8D8D8"/>
<rect opacity="0.312783" width="4.84701" height="241" rx="2.42351" transform="matrix(-0.809017 0.587785 0.587785 0.809017 774.922 50)" fill="#D8D8D8"/>
<rect opacity="0.312783" width="8" height="241" rx="4" transform="matrix(-0.809017 0.587785 0.587785 0.809017 840.473 213)" fill="#F4F4F4"/>
</svg>
