<svg width="1468" height="1000" viewBox="0 0 1468 1000" fill="none" xmlns="http://www.w3.org/2000/svg">
<g opacity="0.8">
<rect width="8" height="241" rx="4" transform="matrix(-0.819152 0.573576 0.573576 0.819152 240.555 -38)" fill="#2C2929"/>
<rect width="6" height="181" rx="3" transform="matrix(-0.819152 0.573576 0.573576 0.819152 611.914 -56)" fill="#2C2929"/>
<rect width="9" height="70" rx="4.5" transform="matrix(-0.819152 0.573576 0.573576 0.819152 917.371 105)" fill="#2C2929"/>
<rect width="30" height="400" rx="15" transform="matrix(-0.819152 0.573576 0.573576 0.819152 275.574 -57)" fill="#2C2929"/>
<rect width="23" height="300" rx="11.25" transform="matrix(-0.819152 0.573576 0.573576 0.819152 321.84 -167)" fill="#2C2929"/>
<rect width="19" height="400" rx="9.5" transform="matrix(-0.819152 0.573576 0.573576 0.819152 1238.56 -139)" fill="#2C2929"/>
<rect width="19" height="400" rx="9.5" transform="matrix(-0.819152 0.573576 0.573576 0.819152 973.562 575)" fill="#2C2929"/>
<rect opacity="0.312783" width="4.84701" height="241" rx="2.42351" transform="matrix(-0.809017 0.587785 0.587785 0.809017 568.922 513)" fill="#2C2929"/>
<rect opacity="0.312783" width="4.84701" height="241" rx="2.42351" transform="matrix(-0.809017 0.587785 0.587785 0.809017 714.922 871)" fill="#2C2929"/>
<rect opacity="0.312783" width="4.84701" height="241" rx="2.42351" transform="matrix(-0.809017 0.587785 0.587785 0.809017 899.922 659)" fill="#2C2929"/>
<rect opacity="0.169044" width="6.85" height="75" rx="3.425" transform="matrix(-0.809017 0.587785 0.587785 0.809017 28.543 112.713)" fill="#2C2929"/>
<rect opacity="0.312783" width="8" height="241" rx="4" transform="matrix(-0.809017 0.587785 0.587785 0.809017 705.473 567)" fill="#2C2929"/>
<rect width="4.84701" height="241" rx="2.42351" transform="matrix(-0.809017 0.587785 0.587785 0.809017 -69.0781 307)" fill="#2C2929"/>
<rect opacity="0.143965" width="12" height="241" rx="6" transform="matrix(-0.809017 0.587785 0.587785 0.809017 -101.293 307)" fill="#2C2929"/>
</g>
</svg>
