<svg width="196" height="200" viewBox="0 0 196 200" fill="none" xmlns="http://www.w3.org/2000/svg">
<g clip-path="url(#clip0_319_8109)">
<path d="M32.5027 61.2449C29.0471 43.5704 39.4433 20.1131 70.4306 10.3756L70.4296 10.3738C76.8298 8.39954 83.4583 7.12122 90.2677 6.56281C141.193 2.39147 186.017 40.4268 190.19 91.3522C192.124 114.975 184.861 137.989 170.757 156.033C169.949 157.065 168.343 157.703 169.34 155.303C173.737 145.224 173.516 138.419 170.619 128.856C164.855 109.833 142.613 90.8236 97.4765 94.5214C55.0013 98.0006 35.93 78.7689 32.5027 61.2449Z" fill="#5D5FEF"/>
<path d="M161.773 140.275C164.941 158.003 154.164 181.288 123.022 190.519L123.023 190.521C116.591 192.391 109.943 193.561 103.125 194.009C52.1393 197.35 7.94081 158.589 4.59772 107.603C3.04846 83.9518 10.6854 61.0593 25.0819 43.247C25.9058 42.2284 27.5226 41.6168 26.486 43.9997C21.9262 54.0064 22.0364 60.814 24.7771 70.4224C30.2298 89.5367 52.1594 108.906 97.3503 105.944C139.877 103.157 158.632 122.697 161.773 140.275Z" fill="#5D5FEF"/>
<path d="M103.766 60.4307L60.0009 136.233" stroke="#5D5FEF" stroke-width="12" stroke-linecap="square"/>
<path fill-rule="evenodd" clip-rule="evenodd" d="M101.765 58.6851L56.2654 137.493L42.5119 137.315L88.0497 58.4413L101.765 58.6851Z" fill="white"/>
<path fill-rule="evenodd" clip-rule="evenodd" d="M151.254 58.6851L105.754 137.493L92.0002 137.315L137.538 58.4413L151.254 58.6851Z" fill="white"/>
</g>
<defs>
<clipPath id="clip0_319_8109">
<rect width="196" height="200" fill="white"/>
</clipPath>
</defs>
</svg>

